<svg xmlns="http://www.w3.org/2000/svg" width="23" height="21" viewBox="0 0 23 21" fill="none"><path d="M22.8921 5.81343C22.6606 5.38887 22.1275 5.22184 21.6996 5.45151L16.5083 7.95013L12.236 0.440363C12.1588 0.301164 12.0395 0.189806 11.9063 0.113246C11.4853 -0.123391 10.9452 0.0227671 10.6996 0.440363L6.42733 7.93621L1.27112 5.45847C0.969464 5.31231 0.60467 5.34711 0.33809 5.55591C0.0715107 5.76471 -0.054764 6.10575 0.0224038 6.43286L2.12698 15.9541C2.21818 16.3647 2.58297 16.657 3.0109 16.6431H19.9177C20.3386 16.65 20.7104 16.3647 20.8016 15.9541L22.9763 6.43286C23.0254 6.22407 22.9974 6.00831 22.8992 5.81343H22.8921ZM19.5739 18.3552H3.48794C2.75134 18.3552 2.15504 18.9468 2.15504 19.6776C2.15504 20.4084 2.75134 21 3.48794 21H19.5809C20.3175 21 20.9138 20.4084 20.9138 19.6776C20.9138 18.9468 20.3175 18.3552 19.5809 18.3552H19.5739Z" fill="#F9FDFF"></path></svg>