<svg xmlns="http://www.w3.org/2000/svg" xmlns:xlink="http://www.w3.org/1999/xlink"
    id="Layer_2_00000153685060464443274100000005096962505153151894_" x="0px" y="0px" viewBox="0 0 833.8 179.8"
    style="enable-background:new 0 0 833.8 179.8;" xml:space="preserve">
    <style type="text/css">
        .st0 {
            fill: #FC4CDA;
        }

        .st1 {
            fill: #0077FF;
        }

        .st2 {
            fill: #3613FA;
        }

        .st3 {
            fill: #2CE5E5;
        }

        .st4 {
            fill: #0400B5;
        }

        .st5 {
            fill: #919191;
        }

        .st6 {
            font-family: 'Poppins-Medium';
        }

        .st7 {
            font-size: 85.6799px;
        }
    </style>
    <g id="Layer_1-2">
        <path
            d="M16.5,147.1c0,4.2-1,7.1-3,8.8c-2,1.7-5.3,2.6-9.9,2.6c-0.6,0-1.3,0-1.9-0.1c-0.6,0-1.2-0.1-1.7-0.1v21.2  c0.8,0.1,2,0.2,3.5,0.3c1.5,0.1,2.9,0.1,4.2,0.1c12.1,0,21.3-2.7,27.6-8.1c6.2-5.4,9.4-13.4,9.4-23.8V42.5H16.5  C16.5,42.5,16.5,147.1,16.5,147.1z M30.6,0c-4.2,0-7.8,1.4-10.7,4.3c-2.9,2.9-4.4,6.3-4.4,10.4S17,22.1,19.9,25  c2.9,2.9,6.5,4.4,10.7,4.4s7.8-1.5,10.7-4.4c2.9-2.9,4.3-6.4,4.3-10.4s-1.5-7.5-4.3-10.4C38.4,1.4,34.8,0,30.6,0z M130.6,101.8  c0,4.4-0.9,8.4-2.6,11.8c-1.7,3.4-4.1,6.1-7.1,8c-3,1.9-6.7,2.9-10.9,2.9c-6.3,0-11-1.9-14.2-5.6s-4.8-8.9-4.8-15.7V42.5H63v66.6  c0,8,1.4,14.9,4.1,20.7c2.8,5.8,6.8,10.2,12.1,13.3c5.3,3.1,11.8,4.7,19.3,4.7s14.4-1.7,19.6-5.1c5.3-3.4,9.2-8.1,11.8-14.1h0.7v17  h28.1V42.5h-28.1L130.6,101.8L130.6,101.8z M259.8,46.8c-6.3-4.3-13.8-6.4-22.5-6.4c-4.9,0-9.4,0.8-13.4,2.4  c-4.1,1.6-7.6,3.9-10.7,6.9c-3.1,3-5.5,6.6-7.4,10.8h-0.7v-18h-28.1v136.9h28.1v-51.3h0.6c1.9,4.1,4.4,7.6,7.5,10.5  c3.1,2.9,6.7,5.2,10.9,6.8c4.2,1.6,8.7,2.4,13.6,2.4c8.7,0,16.1-2.1,22.3-6.4c6.2-4.3,11-10.5,14.4-18.5c3.4-8,5-17.6,5-28.8V94  c0-11.2-1.7-20.8-5.1-28.8C271,57.2,266.1,51.1,259.8,46.8L259.8,46.8z M250.8,94.2c0,6.2-0.9,11.6-2.7,16.2s-4.4,8.1-7.9,10.5  c-3.4,2.5-7.4,3.7-12.1,3.7s-8.6-1.2-12-3.7c-3.4-2.5-6.1-6-8.1-10.5s-2.9-9.9-2.9-16.1v-0.1c0-6.2,1-11.6,2.9-16.2  s4.6-8.1,8.1-10.5c3.5-2.5,7.5-3.7,12-3.7s8.6,1.2,12,3.7s6,5.9,7.9,10.4C249.9,82.4,250.8,87.8,250.8,94.2L250.8,94.2L250.8,94.2z   M294.5,145.8h28.2V42.5h-28.2V145.8z M308.6,0c-4.2,0-7.8,1.4-10.7,4.3c-2.9,2.9-4.4,6.3-4.4,10.4s1.5,7.4,4.4,10.4  s6.5,4.4,10.7,4.4s7.8-1.5,10.7-4.4c2.9-2.9,4.3-6.4,4.3-10.4s-1.5-7.5-4.3-10.4C316.4,1.4,312.9,0,308.6,0z M377.2,17.3h-28.4  v25.2h-14.4v21.2h14.4v53.1c0,11,2.8,19,8.3,23.8c5.5,4.8,14,7.2,25.4,7.2c3,0,5.6-0.1,7.9-0.3s4.2-0.5,5.7-0.7v-20.6  c-0.8,0.1-1.7,0.2-2.7,0.3c-1,0.1-2.1,0.1-3.4,0.1c-4.2,0-7.4-0.9-9.6-2.8c-2.1-1.9-3.2-5.2-3.2-10.1V63.7h18.9V42.5h-18.9V17.3z   M480.6,46.8c-7.4-4.3-16-6.4-26.1-6.4s-18.8,2.2-26.2,6.6S415.1,57.6,411,65.7c-4.1,8.1-6.2,17.6-6.2,28.5v0.1  c0,11,2,20.5,6.2,28.5c4.1,8,9.9,14.2,17.5,18.5c7.6,4.3,16.6,6.5,27.1,6.5c7.4,0,13.8-1,19.3-2.9s10.1-4.5,14-7.7  c3.8-3.2,6.9-6.7,9.1-10.6c2.2-3.8,3.8-7.7,4.5-11.5l0.3-1.1H477l-0.2,0.6c-0.6,1.9-1.9,3.8-3.7,5.7c-1.8,1.9-4.1,3.4-6.9,4.6  s-6.2,1.8-10,1.8c-4.9,0-9.1-1.1-12.6-3.2c-3.5-2.1-6.2-5.2-8.1-9.3c-1.8-3.8-2.6-8.3-2.8-13.5h71v-8.8c0-10.4-2-19.5-6-27.2  C493.7,57.1,488,51.1,480.6,46.8L480.6,46.8z M433.2,83.1c0.4-3.4,1.1-6.6,2.3-9.2c1.9-4.1,4.5-7.2,7.9-9.3s7.2-3.2,11.6-3.2  s8.2,1,11.5,3.1c3.3,2.1,5.9,5.1,7.8,9.2c1.2,2.7,1.9,5.9,2.3,9.4H433.2L433.2,83.1z M574.7,40.7c-1.4-0.2-2.9-0.3-4.4-0.3  c-6.1,0-11.2,1.7-15.4,5.2c-4.2,3.5-7,8.3-8.6,14.5h-0.6V42.5h-27.6v103.2h28.1V87.6c0-4.8,0.9-8.9,2.6-12.3c1.7-3.4,4.2-6,7.5-7.8  c3.3-1.8,7.2-2.8,11.8-2.8c2,0,4,0.1,5.8,0.4c1.8,0.3,3.3,0.7,4.4,1.2V41.5C577.4,41.2,576.2,40.9,574.7,40.7L574.7,40.7z" />
        <polygon class="st0" points="743.2,145.8 694.1,76.3 676.9,100.7 708.7,145.8  " />
        <polygon class="st1" points="610.5,145.8 645.1,145.8 676.9,100.7 659.6,76.3  " />
        <polygon class="st2" points="659.6,76.3 676.9,100.7 694.1,76.3 676.9,51.9  " />
        <polygon class="st3" points="708.7,6.8 676.9,51.9 694.1,76.3 743.2,6.8  " />
        <polygon class="st2" points="645.1,6.8 610.5,6.8 659.6,76.3 676.9,51.9  " />
        <polygon class="st4" points="694.1,76.3 676.9,51.9 659.6,76.3 676.9,100.7  " />
    </g><text transform="matrix(1.1499 0 0 1 767.6035 69.8877)" class="st5 st6 st7">4</text>
</svg>