<svg xmlns="http://www.w3.org/2000/svg" width="23" height="22" viewBox="0 0 23 22" fill="none"><path d="M12.5525 1.09517L14.4251 6.84416H20.4622C21.3265 6.84416 22.0337 7.56442 22.0206 8.42873C22.0206 8.92637 21.7849 9.38472 21.3789 9.68591L16.4943 13.2348L18.3669 18.9838C18.6288 19.8088 18.1705 20.6994 17.3455 20.9613C16.874 21.1184 16.3502 21.0267 15.9442 20.7386L11.0596 17.1897L6.17489 20.7386C5.46773 21.2494 4.48556 21.0922 3.97483 20.3851C3.68672 19.9791 3.59505 19.4553 3.7522 18.9838L5.62488 13.2348L0.727108 9.67282C0.0330395 9.16209 -0.124108 8.17992 0.386622 7.47275C0.674726 7.06679 1.14617 6.83106 1.6438 6.83106H7.68089L9.55357 1.09517C9.81548 0.270147 10.6929 -0.1882 11.531 0.0737125C12.0155 0.23086 12.4084 0.610634 12.5525 1.09517Z" fill="#F9FCFF"></path></svg>