<svg xmlns="http://www.w3.org/2000/svg" width="21" height="22" viewBox="0 0 21 22" fill="none"><path d="M0 20.9685H4.91631V8.91561H0V20.9685ZM20.5466 13.2434C20.5466 12.7313 20.3882 12.2552 20.1334 11.8657C20.7394 11.3825 21.1043 10.5385 20.9735 9.61527C20.8013 8.49005 19.8443 7.71104 18.7976 7.71104H14.9279C14.5492 7.71104 14.2807 7.32154 14.3909 6.91761L14.8384 3.99634C14.8384 1.78195 13.1859 -0.0285119 11.1478 0.000340131C10.6727 0.000340131 10.3008 0.454759 10.3008 0.981309V1.0318C10.3008 2.79899 9.71556 4.50125 8.64829 5.82845C7.93219 6.71565 7.06461 7.76874 6.15571 8.84348V20.6728L7.86334 21.3725C8.87552 21.7908 9.94278 22 11.0169 22H17.455C18.4878 22 19.4655 21.221 19.6308 20.0958C19.7272 19.4394 19.5688 18.8119 19.2383 18.343C19.7616 17.9247 20.1059 17.2466 20.1059 16.4821C20.1059 15.9699 19.9475 15.4939 19.6928 15.1044C20.2161 14.686 20.5604 14.008 20.5604 13.2434H20.5466Z" fill="#F9F5FF"></path></svg>